<svg width="27" height="27" viewBox="0 0 27 27" fill="none" xmlns="http://www.w3.org/2000/svg">
<g clip-path="url(#clip0_1_274)">
<path d="M27 13.5C27 6.04422 20.9558 0 13.5 0C6.04422 0 0 6.04422 0 13.5C0 19.831 4.35888 25.1435 10.2389 26.6026V17.6256H7.45524V13.5H10.2389V11.7223C10.2389 7.12746 12.3185 4.9977 16.8296 4.9977C17.685 4.9977 19.1608 5.16564 19.7645 5.33304V9.07254C19.4459 9.03906 18.8924 9.02232 18.205 9.02232C15.9916 9.02232 15.1362 9.86094 15.1362 12.0409V13.5H19.5458L18.7882 17.6256H15.1362V26.9012C21.8209 26.0939 27.0005 20.4023 27.0005 13.5H27Z" fill="#0866FF"/>
<path d="M18.7877 17.6256L19.5453 13.5H15.1357V12.0409C15.1357 9.86092 15.991 9.0223 18.2045 9.0223C18.8919 9.0223 19.4454 9.03904 19.764 9.07252V5.33302C19.1603 5.16508 17.6845 4.99768 16.8291 4.99768C12.318 4.99768 10.2384 7.12744 10.2384 11.7223V13.5H7.45471V17.6256H10.2384V26.6025C11.2828 26.8617 12.3752 27 13.4995 27C14.053 27 14.5989 26.966 15.1351 26.9012V17.6256H18.7872H18.7877Z" fill="white"/>
</g>
<defs>
<clipPath id="clip0_1_274">
<rect width="27" height="27" fill="white"/>
</clipPath>
</defs>
</svg>
